<svg width="131" height="30" viewBox="0 0 131 30" fill="none" xmlns="http://www.w3.org/2000/svg">
<path d="M6.864 22H4.872V5.44H0.72V5.2H11.04V5.44H6.864V22ZM13.4456 5.44V5.2H17.7176V5.44H16.5416V21.76H17.7176V22H13.4456V21.76H14.5496V5.44H13.4456ZM28.7479 22.096C25.7559 22.096 23.5399 21.248 22.0999 19.552C21.5879 18.944 21.1719 18.136 20.8519 17.128C20.5319 16.12 20.3719 14.896 20.3719 13.456C20.3719 12.016 20.6039 10.728 21.0679 9.592C21.5479 8.44 22.1959 7.552 23.0119 6.928C24.5959 5.76 26.5079 5.176 28.7479 5.176C29.3879 5.176 30.0119 5.232 30.6199 5.344C31.2279 5.44 31.6839 5.544 31.9879 5.656L32.4199 5.824L32.3479 6.064C31.2599 5.632 30.0599 5.416 28.7479 5.416C27.0519 5.416 25.6359 5.968 24.4999 7.072C23.6359 7.888 23.0279 9.088 22.6759 10.672C22.4679 11.568 22.3639 12.664 22.3639 13.96C22.3639 15.256 22.5479 16.456 22.9159 17.56C23.2839 18.648 23.6999 19.456 24.1639 19.984C24.6439 20.512 25.2199 20.936 25.8919 21.256C26.5639 21.56 27.0999 21.736 27.4999 21.784C27.8999 21.832 28.3799 21.856 28.9399 21.856C29.5159 21.856 30.1639 21.8 30.8839 21.688C31.6039 21.576 32.1479 21.472 32.5159 21.376L33.0679 21.208L33.1399 21.448C31.9239 21.88 30.4599 22.096 28.7479 22.096ZM37.6564 5.2V15.808L45.4084 5.2L45.6004 5.368L41.3044 11.224L47.6884 22H45.4564L40.0804 12.904L37.6564 16.24V22H35.6644V5.2H37.6564ZM59.3961 5.2V5.44H51.8361V12.64H58.8441V12.88H51.8361V21.76H59.9241V22H49.8441V5.2H59.3961ZM67.6374 22H65.6454V5.44H61.4934V5.2H71.8134V5.44H67.6374V22Z" fill="black"/>
<path d="M89.232 5.2V5.44H81.672V12.64H88.68V12.88H81.672V21.76H89.76V22H79.68V5.2H89.232ZM91.6174 22H91.3294L98.5054 5.2L98.7694 5.08L104.817 22H102.777L100.905 16.72H93.8974L91.6174 22ZM97.7614 7.792L93.9934 16.48H100.833L97.7614 7.792ZM116.075 6.208C114.619 5.648 113.243 5.368 111.947 5.368C110.667 5.368 109.667 5.64 108.947 6.184C108.227 6.728 107.867 7.48 107.867 8.44C107.867 9.608 108.475 10.512 109.691 11.152C110.235 11.424 110.827 11.68 111.467 11.92C112.123 12.144 112.779 12.4 113.435 12.688C114.091 12.976 114.691 13.304 115.235 13.672C115.779 14.04 116.219 14.552 116.555 15.208C116.891 15.848 117.059 16.672 117.059 17.68C117.059 18.672 116.779 19.52 116.219 20.224C115.659 20.928 114.979 21.408 114.179 21.664C113.395 21.904 112.475 22.024 111.419 22.024C109.451 22.024 107.771 21.536 106.379 20.56L106.499 20.368C107.027 20.784 107.707 21.128 108.539 21.4C109.387 21.656 110.251 21.784 111.131 21.784C112.427 21.784 113.531 21.488 114.443 20.896C115.371 20.288 115.835 19.4 115.835 18.232C115.835 16.952 115.227 15.952 114.011 15.232C113.467 14.912 112.867 14.616 112.211 14.344C111.571 14.072 110.923 13.792 110.267 13.504C109.611 13.2 109.011 12.864 108.467 12.496C107.251 11.696 106.643 10.56 106.643 9.088C106.643 7.92 107.035 6.976 107.819 6.256C108.603 5.52 109.779 5.152 111.347 5.152C112.931 5.152 114.539 5.424 116.171 5.968L116.075 6.208ZM129.507 5.2C129.811 5.504 129.963 5.896 129.963 6.376C129.963 6.776 129.875 7.184 129.699 7.6L125.403 16.312V22H123.411V16.84L118.611 5.2H120.651L125.235 16.024L129.411 7.6C129.587 7.2 129.675 6.784 129.675 6.352C129.675 5.92 129.555 5.584 129.315 5.344L129.507 5.2Z" fill="black"/>
<path d="M75 1.53846V26" stroke="black"/>
</svg>

